<?xml version="1.0" encoding="UTF-8" standalone="no"?>
<!DOCTYPE svg PUBLIC "-//W3C//DTD SVG 1.1//EN" "http://www.w3.org/Graphics/SVG/1.1/DTD/svg11.dtd">
<svg width="100%" height="100%"
     viewBox="0 0 2000 500" version="1.1" xmlns="http://www.w3.org/2000/svg" xml:space="preserve"
     style="fill-rule:evenodd;clip-rule:evenodd;">
    <g>
        <g>
            <clipPath id="_clip1">
                <path d="M250.073,50.146C139.656,50.146 50.146,130.745 50.146,230.172C50.146,329.599 139.656,410.203 250.073,410.203C360.49,410.203 450,329.599 450,230.172C450,130.745 360.49,50.146 250.073,50.146Z"/>
            </clipPath>
            <g clip-path="url(#_clip1)">
                <rect x="50.146" y="50.146" width="399.438" height="360.057"
                      style="fill:rgb(26,35,126);fill-rule:nonzero;"/>
            </g>
        </g>
    </g>
    <g>
        <g>
            <clipPath id="_clip2">
                <path d="M250.073,19.307C194.875,19.307 150.13,64.052 150.13,119.25C150.13,174.443 194.875,219.188 250.073,219.188C305.266,219.188 350.01,174.443 350.01,119.25C350.01,64.052 305.266,19.307 250.073,19.307Z"/>
            </clipPath>
            <g clip-path="url(#_clip2)">
                <rect x="150.13" y="19.307" width="199.88" height="199.88" style="fill:white;fill-rule:nonzero;"/>
            </g>
        </g>
    </g>
    <g>
        <g>
            <clipPath id="_clip3">
                <path d="M293.766,172.651L162.771,311.672L53.599,208.807L184.599,69.786L293.766,172.651Z"/>
            </clipPath>
            <g clip-path="url(#_clip3)">
                <g>
                    <clipPath id="_clip4">
                        <path d="M143.526,118.5C135.276,124.161 126.635,131.297 119.151,139.24C111.667,147.182 105.333,155.646 100.245,164.146C100.151,164.339 100.01,164.49 99.917,164.688C81.182,196.964 79.161,231.833 97.896,250.198L162.943,311.49L293.766,172.651L228.771,111.406C209.182,93.656 174.771,97.448 143.526,118.5Z"/>
                    </clipPath>
                    <g clip-path="url(#_clip4)">
                        <path d="M293.766,172.651L162.771,311.672L53.599,208.807L184.599,69.786L293.766,172.651Z"
                              style="fill:white;fill-rule:nonzero;"/>
                    </g>
                </g>
            </g>
        </g>
    </g>
    <g>
        <g>
            <clipPath id="_clip5">
                <path d="M342.583,309.964L204.297,178.193L307.771,69.599L446.057,201.375L342.583,309.964Z"/>
            </clipPath>
            <g clip-path="url(#_clip5)">
                <g>
                    <clipPath id="_clip6">
                        <path d="M397.573,160.031C391.958,151.745 384.87,143.068 376.969,135.536C369.068,128.01 360.641,121.63 352.172,116.495C351.974,116.401 351.828,116.26 351.63,116.161C319.458,97.245 284.599,95.031 266.135,113.661L204.479,178.365L342.583,309.964L404.193,245.307C422.052,225.823 418.453,191.396 397.573,160.031Z"/>
                    </clipPath>
                    <g clip-path="url(#_clip6)">
                        <path d="M342.583,309.964L204.297,178.193L307.771,69.599L446.057,201.375L342.583,309.964Z"
                              style="fill:white;fill-rule:nonzero;"/>
                    </g>
                </g>
            </g>
        </g>
    </g>
    <g>
        <g>
            <clipPath id="_clip7">
                <path d="M250,34.354C206.026,34.354 170.375,70 170.375,113.979C170.375,157.953 206.026,193.604 250,193.604C293.974,193.604 329.625,157.953 329.625,113.979C329.625,70 293.974,34.354 250,34.354Z"/>
            </clipPath>
            <g clip-path="url(#_clip7)">
                <rect x="170.375" y="34.354" width="159.25" height="159.25" style="fill:white;fill-rule:nonzero;"/>
            </g>
        </g>
    </g>
    <g>
        <clipPath id="_clip8">
            <rect x="170.375" y="34.354" width="159" height="159"/>
        </clipPath>
        <g clip-path="url(#_clip8)">
            <g>
                <clipPath id="_clip9">
                    <path d="M250,34.354C206.026,34.354 170.375,70 170.375,113.979C170.375,157.953 206.026,193.604 250,193.604C293.974,193.604 329.625,157.953 329.625,113.979C329.625,70 293.974,34.354 250,34.354Z"/>
                </clipPath>
                <g clip-path="url(#_clip9)">
                    <g transform="matrix(0.75,0,0,0.75,170.375,34.3525)">
                        <path d="M106.167,0.002C47.535,0.002 0.001,47.53 0.001,106.169C0.001,164.801 47.535,212.336 106.167,212.336C164.799,212.336 212.334,164.801 212.334,106.169C212.334,47.53 164.799,0.002 106.167,0.002Z"
                              style="fill:none;fill-rule:nonzero;stroke:rgb(26,35,126);stroke-width:80px;"/>
                    </g>
                </g>
            </g>
        </g>
    </g>
    <g>
        <g>
            <clipPath id="_clip10">
                <path d="M238.182,113.536L266.203,91.318L276.234,103.969L248.214,126.188L238.182,113.536Z"/>
            </clipPath>
            <g clip-path="url(#_clip10)">
                <g>
                    <clipPath id="_clip11">
                        <path d="M259.849,96.359C263.339,93.589 268.417,94.172 271.188,97.667C273.958,101.161 273.375,106.24 269.88,109.01L254.542,121.172C251.047,123.943 245.969,123.354 243.198,119.859C240.427,116.37 241.016,111.292 244.51,108.521L259.849,96.359Z"/>
                    </clipPath>
                    <g clip-path="url(#_clip11)">
                        <path d="M238.182,113.536L266.156,91.354L276.188,104.005L248.214,126.188L238.182,113.536Z"
                              style="fill:rgb(26,35,126);fill-rule:nonzero;"/>
                    </g>
                </g>
            </g>
        </g>
    </g>
    <g>
        <g>
            <clipPath id="_clip12">
                <path d="M250,70.203C252.776,70.203 255.026,72.922 255.026,76.276C255.026,79.63 252.776,82.349 250,82.349C247.224,82.349 244.974,79.63 244.974,76.276C244.974,72.922 247.224,70.203 250,70.203Z"/>
            </clipPath>
            <g clip-path="url(#_clip12)">
                <rect x="244.974" y="70.203" width="10.052" height="12.13"
                      style="fill:rgb(26,35,126);fill-rule:nonzero;"/>
            </g>
        </g>
    </g>
    <g>
        <g>
            <clipPath id="_clip13">
                <path d="M288.401,108.953C291.177,108.953 293.427,111.203 293.427,113.979C293.427,116.755 291.177,119 288.401,119L286.724,119C283.948,119 281.698,116.755 281.698,113.979C281.698,111.203 283.948,108.953 286.724,108.953L288.401,108.953Z"/>
            </clipPath>
            <g clip-path="url(#_clip13)">
                <rect x="281.698" y="108.953" width="11.74" height="10.047"
                      style="fill:rgb(26,35,126);fill-rule:nonzero;"/>
            </g>
        </g>
    </g>
    <g>
        <g>
            <clipPath id="_clip14">
                <path d="M213.219,108.953C215.995,108.953 218.245,111.203 218.245,113.979C218.245,116.755 215.995,119 213.219,119L210.917,119C208.141,119 205.891,116.755 205.891,113.979C205.891,111.203 208.141,108.953 210.917,108.953L213.219,108.953Z"/>
            </clipPath>
            <g clip-path="url(#_clip14)">
                <rect x="205.891" y="108.953" width="12.365" height="10.047"
                      style="fill:rgb(26,35,126);fill-rule:nonzero;"/>
            </g>
        </g>
    </g>
    <g>
        <g>
            <clipPath id="_clip15">
                <path d="M244.974,150.885C244.974,148.109 247.224,145.865 250,145.865C252.771,145.865 255.021,148.109 255.021,150.885L255.021,152.563C255.021,155.339 252.771,157.589 250,157.589C247.224,157.589 244.974,155.339 244.974,152.563L244.974,150.885Z"/>
            </clipPath>
            <g clip-path="url(#_clip15)">
                <rect x="244.974" y="145.849" width="10.047" height="11.74"
                      style="fill:rgb(26,35,126);fill-rule:nonzero;"/>
            </g>
        </g>
    </g>
    <g>
        <g>
            <clipPath id="_clip16">
                <path d="M124.203,195.792C102.036,232.318 117.651,267.865 137.281,286.734L237.609,382.984C245.651,390.703 258.37,390.651 266.349,382.859L364.375,287.125C382.63,266.828 389.63,245.302 385.74,221.328C380.375,188.167 353.047,162.438 319.286,158.76C298.583,156.531 278.583,162.391 262.974,175.365C258.771,178.854 255.016,182.755 251.745,187C247.859,182.167 243.307,177.75 238.156,173.839C220.208,160.193 197.354,154.776 175.406,158.99C154.62,163.005 135.958,176.417 124.203,195.792Z"/>
            </clipPath>
            <g clip-path="url(#_clip16)">
                <rect x="113.365" y="157.594" width="273.818" height="239.24"
                      style="fill:rgb(194,24,91);fill-rule:nonzero;"/>
            </g>
        </g>
    </g>
    <g>
        <clipPath id="_clip17">
            <rect x="113.365" y="157.594" width="273" height="231.74"/>
        </clipPath>
        <g clip-path="url(#_clip17)">
            <g>
                <clipPath id="_clip18">
                    <path d="M124.203,195.792C102.036,232.313 117.651,267.865 137.281,286.729L237.604,382.979C245.646,390.698 258.365,390.641 266.344,382.854L364.365,287.12C382.62,266.828 389.62,245.297 385.734,221.328C380.365,188.167 353.036,162.438 319.281,158.766C298.578,156.536 278.578,162.396 262.969,175.365C258.766,178.854 255.01,182.755 251.74,187C247.854,182.172 243.302,177.755 238.151,173.839C220.203,160.198 197.354,154.781 175.406,158.995C154.62,163.01 135.958,176.417 124.203,195.792Z"/>
                </clipPath>
                <g clip-path="url(#_clip18)">
                    <g transform="matrix(0.75,0,0,0.75,113.364,157.595)">
                        <path d="M14.452,50.929C-15.103,99.623 5.716,147.026 31.89,172.179L165.654,300.512C176.376,310.804 193.334,310.727 203.973,300.345L334.667,172.699C359.008,145.644 368.341,116.935 363.154,84.977C356.001,40.762 319.563,6.456 274.556,1.56C246.952,-1.412 220.285,6.401 199.473,23.692C193.869,28.345 188.862,33.547 184.501,39.206C179.32,32.769 173.251,26.88 166.383,21.658C142.452,3.47 111.987,-3.752 82.723,1.866C55.008,7.22 30.126,25.095 14.452,50.929Z"
                              style="fill:none;fill-rule:nonzero;stroke:white;stroke-width:53.33px;"/>
                    </g>
                </g>
            </g>
        </g>
    </g>
    <g>
        <clipPath id="_clip19">
            <path d="M236.807,242.026L263.193,242.026L263.193,264.016L236.807,264.016L236.807,242.026ZM214.813,264.016L285.188,264.016L285.188,290.406L214.813,290.406L214.813,264.016ZM236.807,290.406L263.193,290.406L263.193,312.401L236.807,312.401L236.807,290.406Z"/>
        </clipPath>
        <g clip-path="url(#_clip19)">
            <rect x="214.813" y="242.026" width="70.375" height="70.375" style="fill:white;fill-rule:nonzero;"/>
        </g>
    </g>
    <g transform="matrix(1.97494,0,0,0.568424,-523.541,87.8648)">
        <path d="M627.644,318.012C626.837,356.77 622.719,387.282 615.29,409.548C607.861,431.813 598.07,442.946 585.918,442.946C572.626,442.946 562.171,427.401 554.552,396.312C546.933,365.223 543.124,322.547 543.124,268.285L543.124,246.267C543.124,211.632 544.88,181.12 548.393,154.731C551.906,128.343 556.925,108.097 563.453,93.996C569.98,79.894 577.563,72.844 586.203,72.844C598.165,72.844 607.801,83.976 615.112,106.242C622.422,128.507 626.647,159.762 627.786,200.005L606.425,200.005C605.903,176.749 604.039,159.885 600.835,149.412C597.631,138.939 592.753,133.703 586.203,133.703C579.082,133.703 573.754,142.568 570.217,160.298C566.681,178.028 564.865,205.53 564.77,242.804L564.77,270.017C564.77,308.941 566.467,337.391 569.861,355.368C573.255,373.346 578.607,382.334 585.918,382.334C592.516,382.334 597.441,377.098 600.693,366.625C603.944,356.152 605.808,339.947 606.282,318.012L627.644,318.012Z"
              style="fill:rgb(26,35,126);fill-rule:nonzero;"/>
        <path d="M700.201,363.78L662.748,363.78L655.627,437.998L632.913,437.998L671.506,77.792L691.301,77.792L730.107,437.998L707.393,437.998L700.201,363.78ZM668.515,303.663L694.434,303.663L681.403,168.833L668.515,303.663Z"
              style="fill:rgb(26,35,126);fill-rule:nonzero;"/>
        <path d="M778.171,306.137L761.153,306.137L761.153,437.998L739.791,437.998L739.791,77.792L778.313,77.792C790.56,77.792 800.007,87.275 806.653,106.242C813.298,125.209 816.621,152.01 816.621,186.645C816.621,211.22 815.09,231.712 812.029,248.123C808.967,264.533 804.327,277.604 798.108,287.335L820.537,434.535L820.537,437.998L797.61,437.998L778.171,306.137ZM761.153,246.02L778.384,246.02C783.748,246.02 787.902,241.278 790.845,231.795C793.788,222.311 795.26,209.241 795.26,192.583C795.26,175.595 793.871,162.236 791.094,152.505C788.317,142.774 784.057,137.908 778.313,137.908L761.153,137.908L761.153,246.02Z"
              style="fill:rgb(26,35,126);fill-rule:nonzero;"/>
        <path d="M895.231,281.892L854.217,281.892L854.217,378.376L902.352,378.376L902.352,437.998L832.856,437.998L832.856,77.792L902.209,77.792L902.209,137.908L854.217,137.908L854.217,223.754L895.231,223.754L895.231,281.892Z"
              style="fill:rgb(26,35,126);fill-rule:nonzero;"/>
        <path d="M994.348,137.908L962.591,137.908L962.591,437.998L941.23,437.998L941.23,137.908L909.899,137.908L909.899,77.792L994.348,77.792L994.348,137.908Z"
              style="fill:rgb(26,35,126);fill-rule:nonzero;"/>
        <rect x="1007.88" y="77.792" width="21.361" height="360.207" style="fill:rgb(26,35,126);fill-rule:nonzero;"/>
        <path d="M1076.95,77.792L1103.58,339.04L1130.07,77.792L1158.12,77.792L1158.12,437.998L1136.69,437.998L1136.69,339.535L1138.82,169.575L1110.84,437.998L1096.17,437.998L1068.26,169.822L1070.39,339.535L1070.39,437.998L1049.03,437.998L1049.03,77.792L1076.95,77.792Z"
              style="fill:rgb(26,35,126);fill-rule:nonzero;"/>
        <path d="M1239.15,281.892L1198.14,281.892L1198.14,378.376L1246.27,378.376L1246.27,437.998L1176.78,437.998L1176.78,77.792L1246.13,77.792L1246.13,137.908L1198.14,137.908L1198.14,223.754L1239.15,223.754L1239.15,281.892Z"
              style="fill:rgb(26,35,126);fill-rule:nonzero;"/>
    </g>
</svg>
