<svg xmlns="http://www.w3.org/2000/svg" width="500" zoomAndPan="magnify"
     viewBox="0 0 375 374.999991" height="500" preserveAspectRatio="xMidYMid meet" version="1.0">
    <defs>
        <clipPath id="13651b0889">
            <path d="M 37.609375 37.609375 L 338 37.609375 L 338 307.652344 L 37.609375 307.652344 Z M 37.609375 37.609375 "
                  clip-rule="nonzero"/>
        </clipPath>
        <clipPath id="271e09fe46">
            <path d="M 187.554688 37.609375 C 104.742188 37.609375 37.609375 98.058594 37.609375 172.628906 C 37.609375 247.199219 104.742188 307.652344 187.554688 307.652344 C 270.367188 307.652344 337.5 247.199219 337.5 172.628906 C 337.5 98.058594 270.367188 37.609375 187.554688 37.609375 Z M 187.554688 37.609375 "
                  clip-rule="nonzero"/>
        </clipPath>
        <clipPath id="0d9cf35fd9">
            <path d="M 112.597656 14.480469 L 262.507812 14.480469 L 262.507812 164.390625 L 112.597656 164.390625 Z M 112.597656 14.480469 "
                  clip-rule="nonzero"/>
        </clipPath>
        <clipPath id="e9e022d604">
            <path d="M 187.554688 14.480469 C 146.15625 14.480469 112.597656 48.039062 112.597656 89.4375 C 112.597656 130.832031 146.15625 164.390625 187.554688 164.390625 C 228.949219 164.390625 262.507812 130.832031 262.507812 89.4375 C 262.507812 48.039062 228.949219 14.480469 187.554688 14.480469 Z M 187.554688 14.480469 "
                  clip-rule="nonzero"/>
        </clipPath>
        <clipPath id="ec82f99e29">
            <path d="M 63 75 L 221 75 L 221 234 L 63 234 Z M 63 75 " clip-rule="nonzero"/>
        </clipPath>
        <clipPath id="0996dce362">
            <path d="M 220.324219 129.488281 L 122.078125 233.753906 L 40.199219 156.605469 L 138.449219 52.339844 Z M 220.324219 129.488281 "
                  clip-rule="nonzero"/>
        </clipPath>
        <clipPath id="a78810c44c">
            <path d="M 107.644531 88.875 C 101.457031 93.121094 94.976562 98.472656 89.363281 104.429688 C 83.75 110.386719 79 116.734375 75.183594 123.109375 C 75.113281 123.253906 75.007812 123.367188 74.9375 123.515625 C 60.886719 147.722656 59.371094 173.875 73.421875 187.648438 L 122.207031 233.617188 L 220.324219 129.488281 L 171.578125 83.554688 C 156.886719 70.242188 131.078125 73.085938 107.644531 88.875 Z M 107.644531 88.875 "
                  clip-rule="nonzero"/>
        </clipPath>
        <clipPath id="7acb374e4b">
            <path d="M 153 75 L 312 75 L 312 233 L 153 233 Z M 153 75 " clip-rule="nonzero"/>
        </clipPath>
        <clipPath id="0db6c5aeb3">
            <path d="M 256.9375 232.472656 L 153.222656 133.644531 L 230.828125 52.199219 L 334.542969 151.03125 Z M 256.9375 232.472656 "
                  clip-rule="nonzero"/>
        </clipPath>
        <clipPath id="a51208f217">
            <path d="M 298.179688 120.023438 C 293.96875 113.808594 288.652344 107.300781 282.726562 101.652344 C 276.800781 96.007812 270.480469 91.222656 264.128906 87.371094 C 263.980469 87.300781 263.871094 87.195312 263.722656 87.121094 C 239.59375 72.933594 213.449219 71.273438 199.601562 85.246094 L 153.359375 133.773438 L 256.9375 232.472656 L 303.144531 183.980469 C 316.539062 169.367188 313.839844 143.546875 298.179688 120.023438 Z M 298.179688 120.023438 "
                  clip-rule="nonzero"/>
        </clipPath>
        <clipPath id="6dbcebc8c3">
            <path d="M 127.78125 25.765625 L 247.21875 25.765625 L 247.21875 145.203125 L 127.78125 145.203125 Z M 127.78125 25.765625 "
                  clip-rule="nonzero"/>
        </clipPath>
        <clipPath id="bd22386178">
            <path d="M 187.5 25.765625 C 154.519531 25.765625 127.78125 52.5 127.78125 85.484375 C 127.78125 118.464844 154.519531 145.203125 187.5 145.203125 C 220.480469 145.203125 247.21875 118.464844 247.21875 85.484375 C 247.21875 52.5 220.480469 25.765625 187.5 25.765625 Z M 187.5 25.765625 "
                  clip-rule="nonzero"/>
        </clipPath>
        <clipPath id="a6a12a68eb">
            <path d="M 127.78125 25.765625 L 247.03125 25.765625 L 247.03125 145.015625 L 127.78125 145.015625 Z M 127.78125 25.765625 "
                  clip-rule="nonzero"/>
        </clipPath>
        <clipPath id="60b8bbff77">
            <path d="M 187.5 25.765625 C 154.519531 25.765625 127.78125 52.5 127.78125 85.484375 C 127.78125 118.464844 154.519531 145.203125 187.5 145.203125 C 220.480469 145.203125 247.21875 118.464844 247.21875 85.484375 C 247.21875 52.5 220.480469 25.765625 187.5 25.765625 Z M 187.5 25.765625 "
                  clip-rule="nonzero"/>
        </clipPath>
        <clipPath id="32187acc6d">
            <path d="M 181 70 L 205 70 L 205 93 L 181 93 Z M 181 70 " clip-rule="nonzero"/>
        </clipPath>
        <clipPath id="6453d561f0">
            <path d="M 178.636719 85.152344 L 199.652344 68.488281 L 207.175781 77.976562 L 186.160156 94.640625 Z M 178.636719 85.152344 "
                  clip-rule="nonzero"/>
        </clipPath>
        <clipPath id="365a045938">
            <path d="M 194.886719 72.269531 C 197.503906 70.191406 201.3125 70.628906 203.390625 73.25 C 205.46875 75.871094 205.03125 79.679688 202.410156 81.757812 L 190.90625 90.878906 C 188.285156 92.957031 184.476562 92.515625 182.398438 89.894531 C 180.320312 87.277344 180.761719 83.46875 183.382812 81.390625 Z M 194.886719 72.269531 "
                  clip-rule="nonzero"/>
        </clipPath>
        <clipPath id="990d5f223d">
            <path d="M 183.730469 52.652344 L 191.269531 52.652344 L 191.269531 61.78125 L 183.730469 61.78125 Z M 183.730469 52.652344 "
                  clip-rule="nonzero"/>
        </clipPath>
        <clipPath id="b1e9126e85">
            <path d="M 187.5 52.652344 C 189.582031 52.652344 191.269531 54.691406 191.269531 57.207031 C 191.269531 59.722656 189.582031 61.761719 187.5 61.761719 C 185.417969 61.761719 183.730469 59.722656 183.730469 57.207031 C 183.730469 54.691406 185.417969 52.652344 187.5 52.652344 Z M 187.5 52.652344 "
                  clip-rule="nonzero"/>
        </clipPath>
        <clipPath id="ba82a9e44a">
            <path d="M 211.273438 81.714844 L 220.078125 81.714844 L 220.078125 89.25 L 211.273438 89.25 Z M 211.273438 81.714844 "
                  clip-rule="nonzero"/>
        </clipPath>
        <clipPath id="ec57a20619">
            <path d="M 216.300781 81.714844 C 218.382812 81.714844 220.070312 83.402344 220.070312 85.484375 C 220.070312 87.566406 218.382812 89.25 216.300781 89.25 L 215.042969 89.25 C 212.960938 89.25 211.273438 87.566406 211.273438 85.484375 C 211.273438 83.402344 212.960938 81.714844 215.042969 81.714844 Z M 216.300781 81.714844 "
                  clip-rule="nonzero"/>
        </clipPath>
        <clipPath id="243ecc4259">
            <path d="M 154.417969 81.714844 L 163.691406 81.714844 L 163.691406 89.25 L 154.417969 89.25 Z M 154.417969 81.714844 "
                  clip-rule="nonzero"/>
        </clipPath>
        <clipPath id="8f7ed100f7">
            <path d="M 159.914062 81.714844 C 161.996094 81.714844 163.683594 83.402344 163.683594 85.484375 C 163.683594 87.566406 161.996094 89.25 159.914062 89.25 L 158.1875 89.25 C 156.105469 89.25 154.417969 87.566406 154.417969 85.484375 C 154.417969 83.402344 156.105469 81.714844 158.1875 81.714844 Z M 159.914062 81.714844 "
                  clip-rule="nonzero"/>
        </clipPath>
        <clipPath id="d211f4d1ea">
            <path d="M 183.730469 109.386719 L 191.265625 109.386719 L 191.265625 118.191406 L 183.730469 118.191406 Z M 183.730469 109.386719 "
                  clip-rule="nonzero"/>
        </clipPath>
        <clipPath id="1cb3d9030f">
            <path d="M 183.730469 113.164062 C 183.730469 111.082031 185.417969 109.398438 187.5 109.398438 C 189.578125 109.398438 191.265625 111.082031 191.265625 113.164062 L 191.265625 114.421875 C 191.265625 116.503906 189.578125 118.191406 187.5 118.191406 C 185.417969 118.191406 183.730469 116.503906 183.730469 114.421875 Z M 183.730469 113.164062 "
                  clip-rule="nonzero"/>
        </clipPath>
        <clipPath id="134533d44a">
            <path d="M 85.023438 118 L 290.386719 118 L 290.386719 292 L 85.023438 292 Z M 85.023438 118 "
                  clip-rule="nonzero"/>
        </clipPath>
        <clipPath id="16fe20e2e6">
            <path d="M 93.152344 146.84375 C 76.527344 174.238281 88.238281 200.898438 102.960938 215.050781 L 178.207031 287.238281 C 184.238281 293.027344 193.777344 292.988281 199.761719 287.144531 L 273.28125 215.34375 C 286.972656 200.121094 292.222656 183.976562 289.304688 165.996094 C 285.28125 141.125 264.785156 121.828125 239.464844 119.070312 C 223.9375 117.398438 208.9375 121.792969 197.230469 131.523438 C 194.078125 134.140625 191.261719 137.066406 188.808594 140.25 C 185.894531 136.625 182.480469 133.3125 178.617188 130.378906 C 165.15625 120.144531 148.015625 116.082031 131.554688 119.242188 C 115.964844 122.253906 101.96875 132.3125 93.152344 146.84375 Z M 93.152344 146.84375 "
                  clip-rule="nonzero"/>
        </clipPath>
        <clipPath id="281efd1e40">
            <path d="M 85.023438 118.195312 L 289.773438 118.195312 L 289.773438 292 L 85.023438 292 Z M 85.023438 118.195312 "
                  clip-rule="nonzero"/>
        </clipPath>
        <clipPath id="08029418d9">
            <path d="M 93.152344 146.84375 C 76.527344 174.234375 88.238281 200.898438 102.960938 215.046875 L 178.203125 287.234375 C 184.234375 293.023438 193.773438 292.980469 199.757812 287.140625 L 273.273438 215.339844 C 286.964844 200.121094 292.214844 183.972656 289.300781 165.996094 C 285.273438 141.125 264.777344 121.828125 239.460938 119.074219 C 223.933594 117.402344 208.933594 121.796875 197.226562 131.523438 C 194.074219 134.140625 191.257812 137.066406 188.804688 140.25 C 185.890625 136.628906 182.476562 133.316406 178.613281 130.378906 C 165.152344 120.148438 148.015625 116.085938 131.554688 119.246094 C 115.964844 122.257812 101.96875 132.3125 93.152344 146.84375 Z M 93.152344 146.84375 "
                  clip-rule="nonzero"/>
        </clipPath>
        <clipPath id="39eb69cbb2">
            <path d="M 177.605469 181.519531 L 197.394531 181.519531 L 197.394531 198.011719 L 177.605469 198.011719 Z M 161.109375 198.011719 L 213.890625 198.011719 L 213.890625 217.804688 L 161.109375 217.804688 Z M 177.605469 217.804688 L 197.394531 217.804688 L 197.394531 234.300781 L 177.605469 234.300781 Z M 177.605469 217.804688 "
                  clip-rule="nonzero"/>
        </clipPath>
    </defs>
    <g clip-path="url(#13651b0889)">
        <g clip-path="url(#271e09fe46)">
            <path fill="#1a237e"
                  d="M 37.609375 37.609375 L 337.1875 37.609375 L 337.1875 307.652344 L 37.609375 307.652344 Z M 37.609375 37.609375 "
                  fill-opacity="1" fill-rule="nonzero"/>
        </g>
    </g>
    <g clip-path="url(#0d9cf35fd9)">
        <g clip-path="url(#e9e022d604)">
            <path fill="#ffffff"
                  d="M 112.597656 14.480469 L 262.507812 14.480469 L 262.507812 164.390625 L 112.597656 164.390625 Z M 112.597656 14.480469 "
                  fill-opacity="1" fill-rule="nonzero"/>
        </g>
    </g>
    <g clip-path="url(#ec82f99e29)">
        <g clip-path="url(#0996dce362)">
            <g clip-path="url(#a78810c44c)">
                <path fill="#ffffff"
                      d="M 220.324219 129.488281 L 122.078125 233.753906 L 40.199219 156.605469 L 138.449219 52.339844 Z M 220.324219 129.488281 "
                      fill-opacity="1" fill-rule="nonzero"/>
            </g>
        </g>
    </g>
    <g clip-path="url(#7acb374e4b)">
        <g clip-path="url(#0db6c5aeb3)">
            <g clip-path="url(#a51208f217)">
                <path fill="#ffffff"
                      d="M 256.9375 232.472656 L 153.222656 133.644531 L 230.828125 52.199219 L 334.542969 151.03125 Z M 256.9375 232.472656 "
                      fill-opacity="1" fill-rule="nonzero"/>
            </g>
        </g>
    </g>
    <g clip-path="url(#6dbcebc8c3)">
        <g clip-path="url(#bd22386178)">
            <path fill="#ffffff"
                  d="M 127.78125 25.765625 L 247.21875 25.765625 L 247.21875 145.203125 L 127.78125 145.203125 Z M 127.78125 25.765625 "
                  fill-opacity="1" fill-rule="nonzero"/>
        </g>
    </g>
    <g clip-path="url(#a6a12a68eb)">
        <g clip-path="url(#60b8bbff77)">
            <path stroke-linecap="butt" transform="matrix(0.75, 0, 0, 0.75, 127.780952, 25.764408)" fill="none"
                  stroke-linejoin="miter"
                  d="M 79.625402 0.00162268 C 35.651441 0.00162268 0.000397188 35.647458 0.000397188 79.626628 C 0.000397188 123.600589 35.651441 159.251633 79.625402 159.251633 C 123.599364 159.251633 159.250408 123.600589 159.250408 79.626628 C 159.250408 35.647458 123.599364 0.00162268 79.625402 0.00162268 Z M 79.625402 0.00162268 "
                  stroke="#1a237e" stroke-width="60" stroke-opacity="1" stroke-miterlimit="4"/>
        </g>
    </g>
    <g clip-path="url(#32187acc6d)">
        <g clip-path="url(#6453d561f0)">
            <g clip-path="url(#365a045938)">
                <path fill="#1a237e"
                      d="M 178.636719 85.152344 L 199.617188 68.515625 L 207.140625 78.003906 L 186.160156 94.640625 Z M 178.636719 85.152344 "
                      fill-opacity="1" fill-rule="nonzero"/>
            </g>
        </g>
    </g>
    <g clip-path="url(#990d5f223d)">
        <g clip-path="url(#b1e9126e85)">
            <path fill="#1a237e"
                  d="M 183.730469 52.652344 L 191.269531 52.652344 L 191.269531 61.75 L 183.730469 61.75 Z M 183.730469 52.652344 "
                  fill-opacity="1" fill-rule="nonzero"/>
        </g>
    </g>
    <g clip-path="url(#ba82a9e44a)">
        <g clip-path="url(#ec57a20619)">
            <path fill="#1a237e"
                  d="M 211.273438 81.714844 L 220.078125 81.714844 L 220.078125 89.25 L 211.273438 89.25 Z M 211.273438 81.714844 "
                  fill-opacity="1" fill-rule="nonzero"/>
        </g>
    </g>
    <g clip-path="url(#243ecc4259)">
        <g clip-path="url(#8f7ed100f7)">
            <path fill="#1a237e"
                  d="M 154.417969 81.714844 L 163.691406 81.714844 L 163.691406 89.25 L 154.417969 89.25 Z M 154.417969 81.714844 "
                  fill-opacity="1" fill-rule="nonzero"/>
        </g>
    </g>
    <g clip-path="url(#d211f4d1ea)">
        <g clip-path="url(#1cb3d9030f)">
            <path fill="#1a237e"
                  d="M 183.730469 118.191406 L 183.730469 109.386719 L 191.265625 109.386719 L 191.265625 118.191406 Z M 183.730469 118.191406 "
                  fill-opacity="1" fill-rule="nonzero"/>
        </g>
    </g>
    <g clip-path="url(#134533d44a)">
        <g clip-path="url(#16fe20e2e6)">
            <path fill="#c2185b"
                  d="M 85.023438 118.195312 L 290.386719 118.195312 L 290.386719 297.625 L 85.023438 297.625 Z M 85.023438 118.195312 "
                  fill-opacity="1" fill-rule="nonzero"/>
        </g>
    </g>
    <g clip-path="url(#281efd1e40)">
        <g clip-path="url(#08029418d9)">
            <path stroke-linecap="butt" transform="matrix(0.75, 0, 0, 0.75, 85.02303, 118.196462)" fill="none"
                  stroke-linejoin="miter"
                  d="M 10.839086 38.196387 C -11.327583 74.717222 4.287002 110.269308 23.917211 129.133893 L 124.240135 225.383899 C 132.281802 233.10265 145.000553 233.045358 152.97972 225.258899 L 251.00056 129.524518 C 269.255769 109.23285 276.25577 87.701598 272.365144 63.732847 C 267.000561 30.571386 239.672434 4.842218 205.917223 1.170343 C 185.214097 -1.058824 165.214096 4.800551 149.60472 17.769302 C 145.401594 21.258886 141.646386 25.159928 138.375552 29.404719 C 134.490135 24.576594 129.938052 20.159927 124.78701 16.24326 C 106.839092 2.602634 83.990132 -2.814033 62.042214 1.399509 C 41.255754 5.415135 22.594295 18.821385 10.839086 38.196387 Z M 10.839086 38.196387 "
                  stroke="#ffffff" stroke-width="40" stroke-opacity="1" stroke-miterlimit="4"/>
        </g>
    </g>
    <g clip-path="url(#39eb69cbb2)">
        <path fill="#ffffff"
              d="M 161.109375 181.519531 L 213.890625 181.519531 L 213.890625 234.300781 L 161.109375 234.300781 Z M 161.109375 181.519531 "
              fill-opacity="1" fill-rule="nonzero"/>
    </g>
</svg>