<?xml version="1.0" encoding="UTF-8" standalone="no"?>
<svg width="100%" height="100%" viewBox="0 0 231 92" version="1.1" xmlns="http://www.w3.org/2000/svg"
     xml:space="preserve"
     style="fill-rule:evenodd;clip-rule:evenodd;stroke-linejoin:round;stroke-miterlimit:2;">
    <g id="Artboard1" transform="matrix(0.695211,0,0,1.03669,-66.0451,-46.651)">
        <rect x="95" y="45" width="332.273" height="88.744" style="fill:none;"/>
        <g transform="matrix(1.8092,0,0,1.55506,-229.626,-45.8308)">
            <path d="M180.283,87.87L180.283,86.977C180.283,86.352 180.683,86.04 181.484,86.04L186.348,86.04C187.149,86.04 187.549,86.352 187.549,86.977L187.549,87.334C187.549,88.465 187.835,89.239 188.407,89.656C188.98,90.072 190.029,90.281 191.554,90.281L194.243,90.281C195.731,90.281 196.77,90.057 197.362,89.611C197.953,89.165 198.249,88.331 198.249,87.111L198.249,86.575C198.249,85.712 197.8,85.05 196.904,84.589C196.008,84.128 194.892,83.852 193.557,83.763C192.222,83.674 190.782,83.503 189.237,83.25C187.692,82.997 186.252,82.669 184.917,82.268C183.582,81.866 182.466,81.077 181.57,79.902C180.674,78.726 180.226,77.216 180.226,75.371L180.226,73.808C180.226,71.487 181.065,69.687 182.743,68.407C184.421,67.127 186.748,66.487 189.723,66.487L195.445,66.487C198.458,66.487 200.804,67.127 202.483,68.407C204.161,69.687 205,71.487 205,73.808L205,74.657C205,75.282 204.6,75.594 203.799,75.594L198.935,75.594C198.134,75.594 197.734,75.282 197.734,74.657L197.734,74.389C197.734,73.228 197.448,72.439 196.875,72.023C196.303,71.606 195.254,71.398 193.729,71.398L191.497,71.398C189.933,71.398 188.875,71.628 188.322,72.09C187.769,72.551 187.492,73.451 187.492,74.79L187.492,75.639C187.492,77.037 189.056,77.841 192.184,78.049C195.426,78.258 198.306,78.763 200.823,79.567C202.158,80.013 203.274,80.809 204.17,81.955C205.067,83.101 205.515,84.567 205.515,86.352L205.515,87.87C205.515,90.191 204.676,91.992 202.998,93.271C201.319,94.551 198.992,95.191 196.017,95.191L189.781,95.191C186.805,95.191 184.479,94.551 182.8,93.271C181.122,91.992 180.283,90.191 180.283,87.87Z"
                  style="fill:rgb(15,23,42);fill-rule:nonzero;"/>
            <path d="M221.993,95.191L216.901,95.191C213.888,95.191 211.561,94.566 209.921,93.316C208.28,92.066 207.46,90.266 207.46,87.915L207.46,79.701C207.46,77.35 208.28,75.549 209.921,74.299C211.561,73.05 213.888,72.425 216.901,72.425L221.993,72.425C224.968,72.425 227.286,73.057 228.945,74.322C230.604,75.587 231.434,77.38 231.434,79.701L231.434,87.915C231.434,90.236 230.604,92.029 228.945,93.294C227.286,94.559 224.968,95.191 221.993,95.191ZM217.988,90.325L220.906,90.325C222.127,90.325 222.994,90.132 223.509,89.745C224.024,89.358 224.282,88.688 224.282,87.736L224.282,79.879C224.282,78.927 224.024,78.258 223.509,77.871C222.994,77.484 222.127,77.29 220.906,77.29L217.988,77.29C216.767,77.29 215.909,77.484 215.413,77.871C214.918,78.258 214.67,78.927 214.67,79.879L214.67,87.736C214.67,88.688 214.918,89.358 215.413,89.745C215.909,90.132 216.767,90.325 217.988,90.325Z"
                  style="fill:rgb(15,23,42);fill-rule:nonzero;"/>
            <path d="M240.073,95.191L235.21,95.191C234.409,95.191 234.009,94.878 234.009,94.254L234.009,64.746C234.009,64.122 234.409,63.809 235.21,63.809L240.073,63.809C240.874,63.809 241.275,64.122 241.275,64.746L241.275,94.254C241.275,94.878 240.874,95.191 240.073,95.191Z"
                  style="fill:rgb(15,23,42);fill-rule:nonzero;"/>
            <path d="M258.383,95.191L253.29,95.191C250.277,95.191 247.95,94.566 246.31,93.316C244.67,92.066 243.85,90.266 243.85,87.915L243.85,79.701C243.85,77.35 244.67,75.549 246.31,74.299C247.95,73.05 250.277,72.425 253.29,72.425L258.383,72.425C261.358,72.425 263.675,73.057 265.334,74.322C266.994,75.587 267.823,77.38 267.823,79.701L267.823,87.915C267.823,90.236 266.994,92.029 265.334,93.294C263.675,94.559 261.358,95.191 258.383,95.191ZM254.377,90.325L257.295,90.325C258.516,90.325 259.384,90.132 259.899,89.745C260.414,89.358 260.671,88.688 260.671,87.736L260.671,79.879C260.671,78.927 260.414,78.258 259.899,77.871C259.384,77.484 258.516,77.29 257.295,77.29L254.377,77.29C253.157,77.29 252.299,77.484 251.803,77.871C251.307,78.258 251.059,78.927 251.059,79.879L251.059,87.736C251.059,88.688 251.307,89.358 251.803,89.745C252.299,90.132 253.157,90.325 254.377,90.325Z"
                  style="fill:rgb(15,23,42);fill-rule:nonzero;"/>
            <path d="M276.749,95.191L271.886,95.191C271.085,95.191 270.684,94.878 270.684,94.254L270.684,67.425C270.684,66.8 271.085,66.487 271.886,66.487L285.846,66.487C288.822,66.487 291.129,67.12 292.769,68.385C294.41,69.649 295.23,71.442 295.23,73.764L295.23,78.049C295.23,80.37 294.41,82.164 292.769,83.428C291.129,84.693 288.822,85.326 285.846,85.326L278.637,85.326C278.179,85.326 277.95,85.489 277.95,85.817L277.95,94.254C277.95,94.878 277.55,95.191 276.749,95.191ZM278.58,80.37L284.645,80.37C285.865,80.37 286.724,80.17 287.219,79.768C287.715,79.366 287.963,78.704 287.963,77.781L287.963,74.032C287.963,73.079 287.715,72.402 287.219,72C286.724,71.599 285.865,71.398 284.645,71.398L278.58,71.398C278.16,71.398 277.95,71.562 277.95,71.889L277.95,79.879C277.95,80.207 278.16,80.37 278.58,80.37Z"
                  style="fill:rgb(15,23,42);fill-rule:nonzero;"/>
            <path d="M297.289,68.586L297.289,64.702C297.289,64.107 297.671,63.809 298.434,63.809L303.412,63.809C304.174,63.809 304.556,64.092 304.556,64.657L304.556,68.586C304.556,69.181 304.174,69.478 303.412,69.478L298.434,69.478C297.671,69.478 297.289,69.181 297.289,68.586ZM297.289,94.254L297.289,73.362C297.289,72.737 297.671,72.425 298.434,72.425L303.354,72.425C304.155,72.425 304.556,72.737 304.556,73.362L304.556,94.254C304.556,94.64 304.47,94.893 304.298,95.012C304.127,95.131 303.831,95.191 303.412,95.191L298.491,95.191C297.69,95.191 297.289,94.878 297.289,94.254Z"
                  style="fill:rgb(15,23,42);fill-rule:nonzero;"/>
            <path d="M312.394,95.191L306.616,95.191C305.624,95.191 305.357,94.878 305.815,94.254L313.024,83.585L305.815,73.362C305.433,72.737 305.662,72.425 306.501,72.425L312.337,72.425C313.253,72.425 313.844,72.737 314.111,73.362L317.716,80.147L317.944,80.147L321.091,73.362C321.358,72.737 321.95,72.425 322.865,72.425L328.587,72.425C329.578,72.425 329.826,72.737 329.33,73.362L322.465,83.585L329.845,94.254C330.036,94.521 330.065,94.745 329.931,94.923C329.798,95.102 329.54,95.191 329.159,95.191L323.266,95.191C322.465,95.191 321.892,94.878 321.549,94.254L317.944,87.424L317.716,87.424L314.111,94.254C313.844,94.878 313.272,95.191 312.394,95.191Z"
                  style="fill:rgb(15,23,42);fill-rule:nonzero;"/>
            <path d="M352.217,95.191L339.572,95.191C336.559,95.191 334.232,94.566 332.592,93.316C330.952,92.066 330.131,90.266 330.131,87.915L330.131,79.701C330.131,77.35 330.952,75.549 332.592,74.299C334.232,73.05 336.559,72.425 339.572,72.425L344.092,72.425C347.106,72.425 349.432,73.05 351.073,74.299C352.713,75.549 353.533,77.35 353.533,79.701L353.533,85.37C353.533,85.995 353.132,86.308 352.331,86.308L337.97,86.308C337.512,86.308 337.283,86.471 337.283,86.799L337.283,87.781C337.283,88.703 337.541,89.365 338.056,89.767C338.571,90.169 339.439,90.37 340.659,90.37L352.217,90.37C353.018,90.37 353.418,90.697 353.418,91.352L353.418,94.298C353.418,94.626 353.333,94.856 353.161,94.99C352.989,95.124 352.675,95.191 352.217,95.191ZM337.97,82.513L345.751,82.513C346.171,82.513 346.381,82.35 346.381,82.022L346.381,79.879C346.381,78.927 346.133,78.258 345.637,77.871C345.141,77.484 344.283,77.29 343.062,77.29L340.659,77.29C339.439,77.29 338.58,77.484 338.084,77.871C337.589,78.258 337.341,78.927 337.341,79.879L337.341,82.022C337.341,82.35 337.55,82.513 337.97,82.513Z"
                  style="fill:rgb(15,23,42);fill-rule:nonzero;"/>
            <path d="M361.886,95.191L357.023,95.191C356.222,95.191 355.821,94.878 355.821,94.254L355.821,64.746C355.821,64.122 356.222,63.809 357.023,63.809L361.886,63.809C362.687,63.809 363.088,64.122 363.088,64.746L363.088,94.254C363.088,94.878 362.687,95.191 361.886,95.191Z"
                  style="fill:rgb(15,23,42);fill-rule:nonzero;"/>
        </g>
        <g transform="matrix(1.43841,0,0,0.964609,-133.04,-29.6954)">
            <path d="M166.12,158.436L166.12,147.236L170.136,147.236C171.075,147.236 171.88,147.385 172.552,147.684C173.224,147.983 173.741,148.412 174.104,148.972C174.467,149.532 174.648,150.212 174.648,151.012C174.648,151.791 174.467,152.463 174.104,153.028C173.741,153.593 173.224,154.025 172.552,154.324C171.88,154.623 171.075,154.772 170.136,154.772L166.568,154.772L166.936,154.388L166.936,158.436L166.12,158.436ZM166.936,154.436L166.568,154.036L170.136,154.036C171.341,154.036 172.256,153.772 172.88,153.244C173.504,152.716 173.816,151.972 173.816,151.012C173.816,150.041 173.504,149.292 172.88,148.764C172.256,148.236 171.341,147.972 170.136,147.972L166.568,147.972L166.936,147.572L166.936,154.436Z"
                  style="fill:rgb(15,23,42);fill-rule:nonzero;"/>
            <path d="M178.2,158.436L178.2,147.236L182.216,147.236C183.155,147.236 183.96,147.385 184.632,147.684C185.304,147.983 185.821,148.412 186.184,148.972C186.547,149.532 186.728,150.212 186.728,151.012C186.728,151.791 186.547,152.46 186.184,153.02C185.821,153.58 185.304,154.012 184.632,154.316C183.96,154.62 183.155,154.772 182.216,154.772L178.648,154.772L179.016,154.388L179.016,158.436L178.2,158.436ZM185.976,158.436L183.064,154.372L183.992,154.372L186.904,158.436L185.976,158.436ZM179.016,154.436L178.648,154.052L182.216,154.052C183.421,154.052 184.336,153.785 184.96,153.252C185.584,152.719 185.896,151.972 185.896,151.012C185.896,150.041 185.584,149.292 184.96,148.764C184.336,148.236 183.421,147.972 182.216,147.972L178.648,147.972L179.016,147.572L179.016,154.436Z"
                  style="fill:rgb(15,23,42);fill-rule:nonzero;"/>
            <path d="M195.272,158.516C194.44,158.516 193.669,158.375 192.96,158.092C192.251,157.809 191.632,157.409 191.104,156.892C190.576,156.375 190.168,155.772 189.88,155.084C189.592,154.396 189.448,153.647 189.448,152.836C189.448,152.025 189.592,151.276 189.88,150.588C190.168,149.9 190.576,149.297 191.104,148.78C191.632,148.263 192.251,147.863 192.96,147.58C193.669,147.297 194.44,147.156 195.272,147.156C196.104,147.156 196.875,147.297 197.584,147.58C198.293,147.863 198.909,148.26 199.432,148.772C199.955,149.284 200.363,149.884 200.656,150.572C200.949,151.26 201.096,152.015 201.096,152.836C201.096,153.657 200.949,154.412 200.656,155.1C200.363,155.788 199.955,156.388 199.432,156.9C198.909,157.412 198.293,157.809 197.584,158.092C196.875,158.375 196.104,158.516 195.272,158.516ZM195.272,157.764C195.987,157.764 196.648,157.641 197.256,157.396C197.864,157.151 198.392,156.804 198.84,156.356C199.288,155.908 199.637,155.385 199.888,154.788C200.139,154.191 200.264,153.54 200.264,152.836C200.264,152.121 200.139,151.468 199.888,150.876C199.637,150.284 199.288,149.764 198.84,149.316C198.392,148.868 197.864,148.521 197.256,148.276C196.648,148.031 195.987,147.908 195.272,147.908C194.557,147.908 193.896,148.031 193.288,148.276C192.68,148.521 192.149,148.868 191.696,149.316C191.243,149.764 190.891,150.284 190.64,150.876C190.389,151.468 190.264,152.121 190.264,152.836C190.264,153.54 190.389,154.191 190.64,154.788C190.891,155.385 191.243,155.908 191.696,156.356C192.149,156.804 192.68,157.151 193.288,157.396C193.896,157.641 194.557,157.764 195.272,157.764Z"
                  style="fill:rgb(15,23,42);fill-rule:nonzero;"/>
            <path d="M212.776,158.436L207.784,147.236L208.68,147.236L213.448,157.94L212.952,157.94L217.736,147.236L218.584,147.236L213.592,158.436L212.776,158.436Z"
                  style="fill:rgb(15,23,42);fill-rule:nonzero;"/>
            <path d="M218.984,158.436L224.136,147.236L224.952,147.236L230.104,158.436L229.224,158.436L224.36,147.748L224.712,147.748L219.864,158.436L218.984,158.436ZM220.872,155.284L221.144,154.596L227.848,154.596L228.12,155.284L220.872,155.284ZM223.64,146.324L225.864,144.436L227.016,144.436L224.504,146.324L223.64,146.324Z"
                  style="fill:rgb(15,23,42);fill-rule:nonzero;"/>
            <path d="M235.88,158.516C235.048,158.516 234.261,158.375 233.52,158.092C232.779,157.809 232.205,157.444 231.8,156.996L232.168,156.388C232.552,156.783 233.077,157.116 233.744,157.388C234.411,157.66 235.117,157.796 235.864,157.796C236.611,157.796 237.221,157.697 237.696,157.5C238.171,157.303 238.523,157.039 238.752,156.708C238.981,156.377 239.096,156.009 239.096,155.604C239.096,155.124 238.968,154.74 238.712,154.452C238.456,154.164 238.12,153.935 237.704,153.764C237.288,153.593 236.835,153.449 236.344,153.332C235.853,153.215 235.357,153.089 234.856,152.956C234.355,152.823 233.896,152.649 233.48,152.436C233.064,152.223 232.731,151.932 232.48,151.564C232.229,151.196 232.104,150.719 232.104,150.132C232.104,149.599 232.243,149.108 232.52,148.66C232.797,148.212 233.229,147.849 233.816,147.572C234.403,147.295 235.155,147.156 236.072,147.156C236.691,147.156 237.301,147.247 237.904,147.428C238.507,147.609 239.021,147.855 239.448,148.164L239.144,148.82C238.675,148.5 238.171,148.263 237.632,148.108C237.093,147.953 236.573,147.876 236.072,147.876C235.357,147.876 234.765,147.977 234.296,148.18C233.827,148.383 233.48,148.652 233.256,148.988C233.032,149.324 232.92,149.7 232.92,150.116C232.92,150.596 233.045,150.98 233.296,151.268C233.547,151.556 233.88,151.785 234.296,151.956C234.712,152.127 235.171,152.271 235.672,152.388C236.173,152.505 236.669,152.631 237.16,152.764C237.651,152.897 238.104,153.071 238.52,153.284C238.936,153.497 239.272,153.785 239.528,154.148C239.784,154.511 239.912,154.98 239.912,155.556C239.912,156.079 239.768,156.567 239.48,157.02C239.192,157.473 238.752,157.836 238.16,158.108C237.568,158.38 236.808,158.516 235.88,158.516ZM235.656,146.324L233.64,144.436L234.44,144.436L236.392,146.052L235.816,146.052L237.768,144.436L238.568,144.436L236.552,146.324L235.656,146.324Z"
                  style="fill:rgb(15,23,42);fill-rule:nonzero;"/>
            <path d="M248.392,158.436L248.392,147.236L252.824,147.236C254.008,147.236 255.048,147.476 255.944,147.956C256.84,148.436 257.536,149.097 258.032,149.94C258.528,150.783 258.776,151.748 258.776,152.836C258.776,153.924 258.528,154.889 258.032,155.732C257.536,156.575 256.84,157.236 255.944,157.716C255.048,158.196 254.008,158.436 252.824,158.436L248.392,158.436ZM249.208,157.7L252.76,157.7C253.816,157.7 254.733,157.492 255.512,157.076C256.291,156.66 256.893,156.087 257.32,155.356C257.747,154.625 257.96,153.785 257.96,152.836C257.96,151.887 257.747,151.047 257.32,150.316C256.893,149.585 256.291,149.012 255.512,148.596C254.733,148.18 253.816,147.972 252.76,147.972L249.208,147.972L249.208,157.7Z"
                  style="fill:rgb(15,23,42);fill-rule:nonzero;"/>
            <rect x="262.408" y="147.236" width="0.816" height="11.2" style="fill:rgb(15,23,42);fill-rule:nonzero;"/>
            <path d="M272.712,158.516C271.869,158.516 271.091,158.375 270.376,158.092C269.661,157.809 269.04,157.412 268.512,156.9C267.984,156.388 267.576,155.788 267.288,155.1C267,154.412 266.856,153.657 266.856,152.836C266.856,152.015 267,151.26 267.288,150.572C267.576,149.884 267.987,149.284 268.52,148.772C269.053,148.26 269.675,147.863 270.384,147.58C271.093,147.297 271.875,147.156 272.728,147.156C273.539,147.156 274.291,147.284 274.984,147.54C275.677,147.796 276.269,148.18 276.76,148.692L276.248,149.236C275.757,148.756 275.221,148.415 274.64,148.212C274.059,148.009 273.427,147.908 272.744,147.908C272.019,147.908 271.347,148.031 270.728,148.276C270.109,148.521 269.571,148.868 269.112,149.316C268.653,149.764 268.299,150.287 268.048,150.884C267.797,151.481 267.672,152.132 267.672,152.836C267.672,153.54 267.797,154.191 268.048,154.788C268.299,155.385 268.653,155.908 269.112,156.356C269.571,156.804 270.109,157.151 270.728,157.396C271.347,157.641 272.019,157.764 272.744,157.764C273.405,157.764 274.032,157.663 274.624,157.46C275.216,157.257 275.757,156.921 276.248,156.452L276.712,157.076C276.211,157.556 275.611,157.916 274.912,158.156C274.213,158.396 273.48,158.516 272.712,158.516ZM275.928,156.996L275.928,152.884L276.712,152.884L276.712,157.076L275.928,156.996Z"
                  style="fill:rgb(15,23,42);fill-rule:nonzero;"/>
            <rect x="281.096" y="147.236" width="0.816" height="11.2" style="fill:rgb(15,23,42);fill-rule:nonzero;"/>
            <path d="M288.76,158.436L288.76,147.972L284.728,147.972L284.728,147.236L293.608,147.236L293.608,147.972L289.576,147.972L289.576,158.436L288.76,158.436Z"
                  style="fill:rgb(15,23,42);fill-rule:nonzero;"/>
            <path d="M293.992,158.436L299.144,147.236L299.96,147.236L305.112,158.436L304.232,158.436L299.368,147.748L299.72,147.748L294.872,158.436L293.992,158.436ZM295.88,155.284L296.152,154.596L302.856,154.596L303.128,155.284L295.88,155.284ZM298.648,146.324L300.872,144.436L302.024,144.436L299.512,146.324L298.648,146.324Z"
                  style="fill:rgb(15,23,42);fill-rule:nonzero;"/>
            <path d="M307.944,158.436L307.944,147.236L308.76,147.236L308.76,157.7L315.208,157.7L315.208,158.436L307.944,158.436Z"
                  style="fill:rgb(15,23,42);fill-rule:nonzero;"/>
            <path d="M318.104,158.436L318.104,147.236L318.792,147.236L326.776,157.428L326.408,157.428L326.408,147.236L327.224,147.236L327.224,158.436L326.552,158.436L318.552,148.244L318.92,148.244L318.92,158.436L318.104,158.436Z"
                  style="fill:rgb(15,23,42);fill-rule:nonzero;"/>
            <path d="M331.928,158.436L331.928,147.236L332.744,147.236L332.744,158.436L331.928,158.436ZM331.432,146.324L333.656,144.436L334.808,144.436L332.296,146.324L331.432,146.324Z"
                  style="fill:rgb(15,23,42);fill-rule:nonzero;"/>
            <path d="M345.304,158.516C344.472,158.516 343.685,158.375 342.944,158.092C342.203,157.809 341.629,157.444 341.224,156.996L341.592,156.388C341.976,156.783 342.501,157.116 343.168,157.388C343.835,157.66 344.541,157.796 345.288,157.796C346.035,157.796 346.645,157.697 347.12,157.5C347.595,157.303 347.947,157.039 348.176,156.708C348.405,156.377 348.52,156.009 348.52,155.604C348.52,155.124 348.392,154.74 348.136,154.452C347.88,154.164 347.544,153.935 347.128,153.764C346.712,153.593 346.259,153.449 345.768,153.332C345.277,153.215 344.781,153.089 344.28,152.956C343.779,152.823 343.32,152.649 342.904,152.436C342.488,152.223 342.155,151.932 341.904,151.564C341.653,151.196 341.528,150.719 341.528,150.132C341.528,149.599 341.667,149.108 341.944,148.66C342.221,148.212 342.653,147.849 343.24,147.572C343.827,147.295 344.579,147.156 345.496,147.156C346.115,147.156 346.725,147.247 347.328,147.428C347.931,147.609 348.445,147.855 348.872,148.164L348.568,148.82C348.099,148.5 347.595,148.263 347.056,148.108C346.517,147.953 345.997,147.876 345.496,147.876C344.781,147.876 344.189,147.977 343.72,148.18C343.251,148.383 342.904,148.652 342.68,148.988C342.456,149.324 342.344,149.7 342.344,150.116C342.344,150.596 342.469,150.98 342.72,151.268C342.971,151.556 343.304,151.785 343.72,151.956C344.136,152.127 344.595,152.271 345.096,152.388C345.597,152.505 346.093,152.631 346.584,152.764C347.075,152.897 347.528,153.071 347.944,153.284C348.36,153.497 348.696,153.785 348.952,154.148C349.208,154.511 349.336,154.98 349.336,155.556C349.336,156.079 349.192,156.567 348.904,157.02C348.616,157.473 348.176,157.836 347.584,158.108C346.992,158.38 346.232,158.516 345.304,158.516Z"
                  style="fill:rgb(15,23,42);fill-rule:nonzero;"/>
            <path d="M356.04,158.436L351.048,147.236L351.944,147.236L356.712,157.94L356.216,157.94L361,147.236L361.848,147.236L356.856,158.436L356.04,158.436Z"
                  style="fill:rgb(15,23,42);fill-rule:nonzero;"/>
            <path d="M365.176,152.388L371.24,152.388L371.24,153.108L365.176,153.108L365.176,152.388ZM365.272,157.7L372.184,157.7L372.184,158.436L364.456,158.436L364.456,147.236L371.944,147.236L371.944,147.972L365.272,147.972L365.272,157.7ZM367.768,146.324L365.752,144.436L366.552,144.436L368.504,146.052L367.928,146.052L369.88,144.436L370.68,144.436L368.664,146.324L367.768,146.324Z"
                  style="fill:rgb(15,23,42);fill-rule:nonzero;"/>
            <path d="M378.104,158.436L378.104,147.972L374.072,147.972L374.072,147.236L382.952,147.236L382.952,147.972L378.92,147.972L378.92,158.436L378.104,158.436Z"
                  style="fill:rgb(15,23,42);fill-rule:nonzero;"/>
        </g>
    </g>
</svg>
